<?xml version="1.0" encoding="UTF-8" standalone="no"?>
<svg
   xmlns:dc="http://purl.org/dc/elements/1.1/"
   xmlns:cc="http://creativecommons.org/ns#"
   xmlns:rdf="http://www.w3.org/1999/02/22-rdf-syntax-ns#"
   xmlns:svg="http://www.w3.org/2000/svg"
   xmlns="http://www.w3.org/2000/svg"
   xmlns:sodipodi="http://sodipodi.sourceforge.net/DTD/sodipodi-0.dtd"
   xmlns:inkscape="http://www.inkscape.org/namespaces/inkscape"
   version="1.0"
   width="1280.000000pt"
   height="1280.000000pt"
   viewBox="0 0 1280.000000 1280.000000"
   preserveAspectRatio="xMidYMid meet"
   id="svg18"
   sodipodi:docname="1454979.svg"
   inkscape:export-filename="assets/img/logo_light.png"
   inkscape:export-xdpi="22.5"
   inkscape:export-ydpi="22.5"
   inkscape:version="0.92.3 (2405546, 2018-03-11)">
  <defs
     id="defs22" />
  <sodipodi:namedview
     pagecolor="#ffffff"
     bordercolor="#666666"
     borderopacity="1"
     objecttolerance="10"
     gridtolerance="10"
     guidetolerance="10"
     inkscape:pageopacity="0"
     inkscape:pageshadow="2"
     inkscape:window-width="2426"
     inkscape:window-height="1329"
     id="namedview20"
     showgrid="false"
     inkscape:zoom="0.39111844"
     inkscape:cx="1175.6663"
     inkscape:cy="901.97719"
     inkscape:window-x="134"
     inkscape:window-y="55"
     inkscape:window-maximized="1"
     inkscape:current-layer="svg18" />
  <metadata
     id="metadata2">
Created by potrace 1.15, written by Peter Selinger 2001-2017
<rdf:RDF>
  <cc:Work
     rdf:about="">
    <dc:format>image/svg+xml</dc:format>
    <dc:type
       rdf:resource="http://purl.org/dc/dcmitype/StillImage" />
  </cc:Work>
</rdf:RDF>
</metadata>
  <g
     transform="translate(0.000000,1280.000000) scale(0.100000,-0.100000)"
     fill="#000000"
     stroke="none"
     id="g16">
    <path
       d="M5690 12793 c-319 -35 -704 -110 -1020 -199 -258 -73 -651 -210 -676 -237 -15 -16 -184 -503 -234 -672 -107 -367 -139 -697 -120 -1235 21 -569 66 -896 189 -1375 138 -535 304 -987 576 -1575 37 -80 80 -176 96 -213 l28 -68 -26 -10 c-41 -15 -185 -46 -353 -74 -602 -101 -881 -158 -2115 -430 -1032 -228 -1577 -370 -1900 -494 l-130 -50 3 -93 c3 -98 30 -389 37 -396 2 -2 120 39 262 91 850 314 1600 543 2748 842 378 98 1560 395 1574 395 14 0 81 -125 81 -152 0 -25 -6 -29 -92 -56 -51 -16 -156 -46 -233 -66 -77 -20 -216 -56 -310 -80 -426 -112 -1838 -566 -2355 -758 -751 -279 -1600 -663 -1600 -724 0 -31 106 -492 116 -503 2 -2 97 54 211 124 510 314 846 489 1378 717 732 315 1977 767 2580 938 257 73 360 108 380 130 15 17 17 32 12 107 -9 136 -57 358 -236 1083 -153 622 -189 803 -210 1045 -14 155 -14 944 -1 1111 31 386 192 907 425 1379 162 328 309 561 575 915 129 172 410 572 410 585 0 5 -8 5 -70 -2z"
       id="path4" />
    <path
       d="M7665 12681 c-104 -47 -533 -322 -733 -468 -750 -551 -1316 -1201 -1676 -1923 -192 -386 -305 -722 -395 -1175 -54 -271 -56 -307 -56 -1010 1 -712 0 -698 70 -1205 44 -325 59 -464 51 -494 -5 -19 -14 -26 -47 -31 -166 -28 -1190 -437 -1840 -736 -131 -60 -263 -119 -291 -130 -63 -24 -643 -319 -958 -486 -518 -275 -798 -450 -1136 -710 -183 -140 -238 -195 -228 -227 13 -43 156 -370 197 -452 l44 -87 55 74 c129 174 511 557 729 731 552 440 1516 964 2619 1423 376 157 845 334 855 323 6 -6 28 -249 22 -254 -2 -2 -98 -40 -213 -83 -955 -359 -1782 -778 -2523 -1278 -459 -310 -714 -529 -892 -766 -172 -229 -250 -428 -271 -688 l-11 -136 78 -114 c177 -259 377 -510 602 -754 l120 -131 94 -32 c382 -130 944 -145 1515 -42 825 150 1687 631 2349 1311 511 525 797 1028 1465 2579 286 662 398 894 580 1195 307 508 695 932 1092 1192 279 183 539 238 473 100 -72 -153 -646 -631 -926 -772 -108 -55 -124 -46 -80 39 17 31 25 56 20 56 -22 0 -220 -217 -323 -354 -139 -184 -261 -412 -370 -687 -78 -200 -253 -718 -450 -1339 -217 -684 -287 -870 -446 -1195 -235 -480 -521 -884 -899 -1268 -762 -775 -1730 -1258 -2746 -1369 -67 -7 -235 -13 -382 -13 -145 0 -263 -2 -263 -5 0 -7 270 -197 389 -275 152 -98 365 -221 545 -315 l157 -82 87 32 c1377 517 2035 921 2619 1607 220 258 477 648 617 938 199 409 288 690 556 1750 319 1262 390 1523 409 1510 5 -2 4 -30 -1 -62 -15 -94 13 -98 191 -29 422 163 1254 634 1819 1028 396 277 673 532 830 765 53 79 145 262 165 329 37 125 29 397 -14 488 -25 53 -84 114 -162 166 -127 85 -250 110 -551 110 -292 0 -463 -24 -704 -97 -929 -281 -1899 -1062 -2557 -2058 -148 -224 -239 -391 -580 -1060 -193 -380 -338 -654 -420 -800 -719 -1272 -1392 -1936 -2259 -2230 -180 -61 -298 -85 -451 -92 -202 -8 -342 30 -439 118 -75 68 -101 124 -99 214 3 168 116 359 353 595 177 178 335 301 620 482 368 234 1099 638 1218 673 55 16 11 -101 -81 -215 -62 -77 -192 -168 -434 -304 -87 -49 -205 -116 -263 -149 -141 -80 -425 -269 -530 -353 -251 -202 -423 -428 -448 -589 -17 -108 10 -173 86 -208 40 -18 65 -21 157 -20 247 2 510 95 745 263 328 235 668 553 899 843 301 378 491 705 983 1697 585 1177 719 1417 1008 1805 457 615 1058 1114 1767 1468 373 187 854 351 1173 401 152 24 432 39 580 32 371 -18 702 -157 857 -361 89 -117 143 -274 143 -419 0 -164 -130 -526 -263 -728 -224 -345 -696 -740 -1356 -1137 -458 -276 -1187 -640 -1833 -916 l-207 -89 -15 -85 c-33 -183 -108 -762 -171 -1326 -119 -1057 -196 -1459 -345 -1810 -106 -250 -306 -614 -449 -815 -180 -255 -488 -578 -746 -784 -191 -152 -450 -334 -595 -418 -261 -152 -687 -354 -964 -458 -54 -20 -95 -39 -90 -42 32 -18 430 -120 609 -157 254 -51 590 -97 851 -116 l91 -7 139 105 c517 389 929 855 1226 1385 230 410 441 997 518 1437 41 238 52 367 57 675 6 328 -2 489 -42 885 -43 430 -65 794 -65 1090 l0 160 158 54 c397 136 998 399 1592 696 844 422 1311 747 1861 1295 222 222 332 349 438 505 129 192 196 341 237 528 13 62 30 137 39 167 8 30 15 70 15 88 0 64 -263 558 -452 849 -76 117 -83 124 -141 153 -108 52 -436 123 -697 151 -149 16 -531 16 -685 0 -589 -61 -1306 -319 -1930 -694 -392 -236 -734 -506 -1075 -847 -642 -643 -979 -1183 -1386 -2215 -242 -614 -281 -709 -356 -879 -98 -222 -313 -659 -403 -821 -90 -160 -194 -318 -277 -424 -360 -452 -926 -909 -1160 -937 -49 -6 -58 -4 -78 16 -17 17 -21 29 -16 53 19 95 164 258 365 410 246 187 595 417 633 417 21 0 21 -1 8 -34 -14 -38 6 -33 47 11 88 93 279 410 405 673 148 308 235 551 527 1465 251 789 371 1118 526 1440 234 490 537 908 974 1345 656 655 1416 1115 2296 1388 346 108 546 154 880 201 257 37 374 48 620 57 l189 7 -164 161 c-161 157 -388 354 -543 470 l-77 58 -57 -6 c-119 -15 -482 -78 -583 -102 -623 -149 -1391 -495 -2010 -907 -565 -377 -1048 -855 -1407 -1392 -411 -617 -638 -1264 -939 -2685 -146 -690 -178 -834 -224 -1025 -61 -250 -69 -272 -69 -188 -1 34 -6 65 -11 68 -37 23 -493 -184 -955 -433 -895 -482 -1531 -1014 -1741 -1456 -76 -161 -91 -285 -54 -432 62 -242 261 -387 569 -416 127 -11 380 1 561 27 392 57 762 212 1195 500 514 342 929 762 1327 1340 190 277 337 530 728 1255 300 557 422 778 522 943 152 252 408 618 569 812 117 141 470 491 624 619 313 260 648 477 945 612 286 130 498 184 714 184 226 -1 344 -51 400 -170 17 -37 21 -63 20 -150 -1 -93 -4 -115 -33 -192 -80 -213 -288 -453 -596 -684 -399 -301 -1449 -930 -1672 -1003 -77 -25 -92 4 -49 96 53 113 143 181 526 398 546 310 759 448 982 642 164 143 303 305 365 427 31 60 37 83 40 151 5 99 -13 135 -85 168 -59 26 -206 35 -306 17 -96 -17 -284 -79 -398 -132 -343 -158 -578 -328 -904 -653 -345 -343 -633 -722 -884 -1160 -94 -165 -437 -848 -670 -1335 -191 -400 -396 -798 -482 -936 -725 -1166 -2062 -2053 -3215 -2134 -384 -26 -720 47 -993 216 -229 141 -340 337 -340 599 0 224 79 425 264 672 189 253 385 420 881 748 413 273 722 452 1210 700 340 172 510 247 748 331 130 45 188 71 204 88 24 28 56 152 78 303 26 181 33 301 65 1153 6 151 17 354 26 450 127 1484 741 2668 1830 3532 284 225 439 329 769 513 402 225 827 420 1145 525 143 47 318 115 333 129 9 9 -178 99 -368 178 -184 76 -425 163 -600 217 -127 38 -506 136 -524 136 -3 0 -24 -9 -46 -19z"
       id="path6" />
    <path
       d="M2654 11617 c-187 -132 -448 -345 -611 -498 l-63 -58 50 -162 c64 -207 104 -306 203 -504 168 -338 425 -764 675 -1120 207 -295 690 -908 841 -1068 30 -31 52 -60 48 -63 -24 -25 -523 433 -1027 943 -497 502 -776 827 -1115 1301 -71 100 -132 182 -135 182 -12 0 -310 -388 -310 -404 0 -13 634 -644 763 -759 107 -96 235 -196 877 -687 402 -307 460 -353 455 -358 -19 -19 -1047 606 -1780 1083 -354 230 -561 355 -569 343 -11 -15 -98 -157 -132 -215 l-43 -72 114 -70 c203 -125 738 -400 1280 -656 154 -73 389 -185 523 -249 133 -63 275 -129 315 -146 125 -54 124 -53 105 -57 -61 -14 -871 272 -1753 620 -258 102 -515 204 -570 227 -55 23 -110 46 -123 51 -22 8 -27 2 -92 -133 -39 -79 -70 -148 -70 -154 0 -21 352 -142 784 -270 122 -36 493 -139 826 -230 780 -213 1269 -354 1385 -398 l40 -16 -50 6 c-94 11 -1462 263 -1785 329 -777 159 -863 175 -1237 228 l-92 14 -11 -31 c-47 -132 -100 -291 -100 -301 0 -8 27 -17 72 -23 189 -28 1022 -129 1548 -187 865 -96 1920 -241 1936 -266 7 -11 -3 -11 -101 1 -399 47 -1969 100 -3007 100 l-546 0 -21 -87 c-29 -128 -63 -314 -58 -319 2 -2 85 0 183 6 98 5 303 14 454 20 151 5 444 17 650 25 206 8 566 22 800 30 234 9 497 20 585 25 246 15 1145 53 1285 54 137 1 162 -6 197 -60 39 -60 -8 -75 -313 -98 -808 -62 -2895 -268 -3309 -327 -261 -36 -568 -92 -592 -107 -8 -5 -15 -69 -22 -186 -15 -249 -15 -280 4 -272 25 9 787 161 1080 215 884 163 1548 273 2715 451 373 57 579 95 593 109 17 17 -2 76 -59 187 -53 104 -112 203 -409 689 -805 1319 -1050 2003 -1170 3269 -8 87 -16 161 -18 163 -2 2 -44 -25 -93 -60z"
       id="path8" />
    <path
       d="M12439 8265 c-190 -306 -595 -749 -934 -1020 -546 -438 -1406 -893 -2520 -1332 -537 -212 -729 -284 -1000 -375 l-100 -33 4 -100 c2 -55 7 -110 12 -123 8 -20 13 -22 46 -16 322 56 1645 545 2402 888 842 382 1497 767 1946 1145 117 99 347 323 365 355 11 22 9 45 -24 188 -37 157 -129 495 -139 504 -3 3 -29 -34 -58 -81z"
       id="path10" />
    <path
       d="M12667 7050 c-152 -120 -569 -393 -852 -559 -257 -151 -729 -377 -1127 -542 -651 -268 -1377 -517 -2213 -759 -357 -103 -457 -136 -491 -162 -25 -20 -26 -25 -20 -82 9 -94 95 -508 196 -946 180 -780 192 -864 192 -1350 1 -442 -19 -630 -108 -1020 -47 -203 -140 -438 -305 -770 -122 -244 -299 -565 -395 -712 l-44 -69 37 7 c177 30 503 110 712 174 146 45 462 157 545 194 l53 23 21 129 c50 297 62 477 62 940 0 510 -26 752 -135 1242 -94 420 -188 698 -400 1185 -42 98 -75 181 -72 184 3 3 33 -48 65 -113 33 -66 135 -254 227 -419 313 -561 464 -890 758 -1647 120 -308 161 -444 247 -818 28 -124 55 -233 58 -243 6 -15 28 -4 154 75 148 93 459 310 478 334 13 14 -37 118 -208 434 -246 456 -339 610 -550 901 -137 191 -233 319 -648 869 -110 146 -214 286 -232 313 l-33 47 100 0 c100 0 409 -17 811 -45 379 -27 843 -37 1335 -31 675 10 1271 32 1368 52 31 6 32 8 107 209 58 157 65 179 53 172 -12 -8 -466 -61 -773 -92 -600 -58 -1191 -87 -2385 -116 -550 -13 -696 -10 -752 18 -36 18 -62 47 -52 58 10 9 145 23 375 40 120 8 284 20 364 26 1292 92 2757 273 3264 401 84 21 90 25 98 53 26 93 117 459 115 461 -2 2 -37 -8 -78 -22 -174 -60 -834 -230 -1194 -309 -607 -133 -1059 -206 -1961 -320 -779 -98 -1041 -141 -1100 -181 -19 -13 -36 -24 -38 -24 -7 0 -66 155 -68 180 -3 23 0 25 47 27 178 11 1558 272 2242 423 892 198 1698 435 2106 620 l115 52 12 96 c12 98 39 405 35 410 -1 1 -67 -29 -147 -67 -206 -99 -600 -274 -744 -332 -159 -63 -487 -174 -734 -249 -503 -152 -990 -283 -2475 -665 -203 -53 -406 -105 -449 -117 l-79 -22 -28 34 c-16 19 -37 54 -46 78 l-17 45 27 23 c37 32 169 73 597 186 469 123 1178 336 1692 509 1035 346 1751 649 2246 949 l173 105 -6 130 c-6 121 -34 457 -38 462 -2 1 -42 -29 -90 -67z"
       id="path12" />
    <path
       d="M8747 3811 c-16 -6 -7 -23 74 -126 232 -302 472 -560 1013 -1089 404 -397 609 -611 771 -808 53 -65 101 -118 105 -118 12 0 340 325 340 337 0 5 -21 25 -47 44 -27 18 -176 135 -333 259 -157 124 -431 340 -610 480 -452 353 -701 552 -696 557 2 3 143 -78 313 -180 818 -489 1577 -915 1609 -903 20 8 196 248 188 255 -5 4 -38 18 -74 30 -92 33 -783 330 -1110 478 -310 140 -752 354 -746 361 3 2 263 -82 578 -186 756 -252 1075 -351 1396 -436 l131 -34 59 91 c33 51 71 111 86 134 l26 43 -22 5 c-13 2 -113 21 -223 41 -320 57 -764 152 -1122 240 -578 142 -1333 364 -1236 364 6 0 158 -29 339 -65 920 -184 1898 -315 2344 -315 l86 0 67 135 c37 74 67 138 67 143 0 5 -105 12 -232 16 -753 22 -1193 55 -2453 186 -698 73 -666 70 -688 61z"
       id="path14" />
  </g>
</svg>
