<?xml version="1.0" standalone="no"?>
<!DOCTYPE svg PUBLIC "-//W3C//DTD SVG 20010904//EN"
 "http://www.w3.org/TR/2001/REC-SVG-20010904/DTD/svg10.dtd">
<svg version="1.0" xmlns="http://www.w3.org/2000/svg"
 width="1280.000000pt" height="953.000000pt" viewBox="0 0 1280.000000 953.000000"
 preserveAspectRatio="xMidYMid meet">
<metadata>
Created by potrace 1.15, written by Peter Selinger 2001-2017
</metadata>
<g transform="translate(0.000000,953.000000) scale(0.100000,-0.100000)"
fill="#000000" stroke="none">
<path d="M8870 9522 c0 -14 73 -79 125 -111 79 -50 187 -86 390 -131 667 -147
1387 -445 1809 -748 103 -74 252 -216 316 -300 61 -81 124 -206 145 -287 18
-70 21 -210 5 -280 -47 -214 -169 -388 -444 -633 l-141 -125 -7 74 c-27 272
-133 488 -342 694 -358 355 -960 586 -1888 725 -200 30 -196 32 -107 -53 98
-93 233 -174 634 -380 465 -238 576 -307 715 -447 214 -213 211 -417 -8 -661
-60 -68 -206 -189 -302 -252 -84 -55 -337 -183 -346 -174 -3 3 0 33 7 66 16
83 7 239 -20 321 -72 226 -294 424 -581 519 -143 48 -325 70 -454 57 l-67 -8
38 -30 c21 -16 97 -71 168 -121 279 -197 389 -348 372 -516 -26 -255 -412
-506 -999 -651 -891 -219 -2113 -221 -3076 -5 -269 60 -507 151 -654 248 -84
56 -172 155 -197 222 -27 71 -27 158 -2 231 56 157 194 250 556 374 220 76
363 143 430 204 49 44 49 45 20 41 -16 -3 -79 -12 -139 -20 -513 -73 -962
-213 -1181 -369 -76 -55 -158 -144 -190 -205 -66 -131 -48 -294 50 -447 19
-30 30 -54 24 -54 -6 0 -46 9 -88 20 -383 98 -776 337 -886 540 -27 49 -30 65
-30 140 0 78 3 90 35 150 105 195 374 372 975 640 529 237 628 287 602 301
-28 16 -252 31 -367 24 -664 -37 -1338 -274 -1715 -603 -225 -196 -341 -438
-319 -666 l7 -69 -78 42 c-325 175 -524 386 -575 610 -18 79 -8 231 20 306 98
256 331 460 792 691 565 284 1291 486 2198 612 l125 17 3 68 3 67 -63 0 c-104
0 -501 -33 -728 -61 -999 -121 -1902 -372 -2625 -729 -488 -241 -763 -524
-807 -830 -58 -393 332 -800 1027 -1073 174 -68 254 -94 523 -172 l213 -61 51
-80 c168 -263 438 -491 829 -698 545 -290 1843 -700 2944 -930 1316 -275 2586
-363 3685 -255 152 15 906 106 1030 125 679 102 1082 262 1361 543 110 111
167 188 225 307 37 77 76 184 67 184 -3 0 -62 -25 -132 -56 -770 -342 -1684
-565 -2651 -648 -570 -50 -1278 -50 -1900 0 -1263 99 -2630 406 -3880 871
-240 89 -547 238 -840 407 -56 32 -50 32 80 0 606 -147 1429 -271 2185 -328
573 -44 933 -56 1637 -56 1341 0 2162 60 3060 224 1045 191 2079 530 2598 851
411 255 652 572 676 889 28 360 -227 716 -728 1019 -166 100 -525 275 -748
363 -658 260 -1429 440 -2243 524 -230 23 -207 22 -207 12z"/>
<path d="M6085 6859 c-305 -24 -669 -75 -875 -124 -155 -37 -341 -97 -347
-112 -8 -21 49 -122 106 -184 188 -208 547 -316 1116 -335 184 -6 483 5 685
27 191 20 617 80 710 100 205 45 322 111 374 212 27 52 28 60 17 97 -42 139
-311 239 -761 280 -553 51 -764 59 -1025 39z"/>
<path d="M12177 6625 c-305 -209 -745 -439 -1147 -602 -735 -297 -1579 -485
-2655 -592 -430 -43 -827 -69 -1630 -104 -138 -6 -404 12 -778 53 -590 64
-792 71 -1057 34 -58 -8 -141 -24 -185 -36 -82 -22 -170 -56 -147 -57 7 -1
158 -19 335 -41 748 -91 1315 -144 1947 -181 303 -17 1192 -23 1480 -10 856
40 1638 147 2302 315 980 249 1506 644 1642 1234 8 34 11 62 8 61 -4 0 -56
-34 -115 -74z"/>
<path d="M2580 5382 c0 -14 147 -196 242 -298 815 -881 2225 -1394 4288 -1563
721 -59 2061 -90 2639 -61 996 50 1477 317 1587 878 8 41 14 76 14 78 0 2 -62
-27 -139 -65 -565 -284 -1185 -445 -1966 -513 -234 -20 -1045 -17 -1305 5
-1055 91 -2084 307 -3260 684 -354 113 -439 150 -1010 428 -397 194 -558 266
-736 331 -108 39 -354 106 -354 96z"/>
<path d="M4725 3513 c779 -736 2457 -1144 3695 -897 270 54 478 125 689 235
157 82 403 259 361 259 -108 0 -611 -26 -925 -47 -330 -22 -474 -27 -825 -27
-667 -1 -875 30 -1540 234 -146 44 -314 96 -375 115 -466 142 -789 206 -1039
205 l-121 -1 80 -76z"/>
<path d="M4926 2926 c24 -167 111 -301 299 -461 102 -87 388 -280 515 -348
180 -97 431 -184 668 -232 656 -134 1322 -77 1812 156 132 63 276 158 366 243
l69 65 -556 1 c-562 0 -817 8 -1144 35 -721 61 -1299 213 -1842 486 l-193 96
6 -41z"/>
<path d="M4990 2065 c0 -128 55 -240 181 -365 132 -132 408 -314 599 -394 549
-232 1222 -181 1669 127 78 54 250 211 241 220 -10 10 -318 27 -690 37 -423
12 -652 24 -820 46 -368 47 -686 147 -1027 325 l-153 79 0 -75z"/>
<path d="M4790 1165 c0 -2 11 -33 24 -67 118 -316 422 -680 796 -955 104 -76
210 -146 210 -137 0 2 7 40 16 82 30 147 131 314 265 436 140 127 307 298 356
364 30 41 53 75 51 76 -1 2 -55 0 -118 -5 -462 -31 -883 17 -1413 162 -194 53
-187 51 -187 44z"/>
</g>
</svg>
